<?xml version="1.0" encoding="UTF-8" standalone="no"?>
<!-- Created with Inkscape (http://www.inkscape.org/) -->

<svg
   xmlns:dc="http://purl.org/dc/elements/1.1/"
   xmlns:cc="http://creativecommons.org/ns#"
   xmlns:rdf="http://www.w3.org/1999/02/22-rdf-syntax-ns#"
   xmlns:svg="http://www.w3.org/2000/svg"
   xmlns="http://www.w3.org/2000/svg"
   xmlns:sodipodi="http://sodipodi.sourceforge.net/DTD/sodipodi-0.dtd"
   xmlns:inkscape="http://www.inkscape.org/namespaces/inkscape"
   width="141.19687mm"
   height="132.78081mm"
   viewBox="0 0 500.30387 470.48317"
   id="svg2"
   version="1.1"
   inkscape:version="0.91 r13725"
   sodipodi:docname="trump.svg">
  <defs
     id="defs4" />
  <sodipodi:namedview
     id="base"
     pagecolor="#ffffff"
     bordercolor="#666666"
     borderopacity="1.0"
     inkscape:pageopacity="0.0"
     inkscape:pageshadow="2"
     inkscape:zoom="0.49838048"
     inkscape:cx="108.76286"
     inkscape:cy="96.140573"
     inkscape:document-units="px"
     inkscape:current-layer="layer1"
     showgrid="false"
     inkscape:window-width="1366"
     inkscape:window-height="705"
     inkscape:window-x="-8"
     inkscape:window-y="-8"
     inkscape:window-maximized="1"
     fit-margin-top="0"
     fit-margin-left="0"
     fit-margin-right="0"
     fit-margin-bottom="0" />
  <metadata
     id="metadata7">
    <rdf:RDF>
      <cc:Work
         rdf:about="">
        <dc:format>image/svg+xml</dc:format>
        <dc:type
           rdf:resource="http://purl.org/dc/dcmitype/StillImage" />
        <dc:title></dc:title>
      </cc:Work>
    </rdf:RDF>
  </metadata>
  <g
     inkscape:label="Layer 1"
     inkscape:groupmode="layer"
     id="layer1"
     transform="translate(-930.34298,-325.62175)">
    <g
       id="g4211"
       transform="translate(632.04723,74.240468)">
      <path
         inkscape:connector-curvature="0"
         id="path4179"
         d="m 321.57807,443.09278 7.60722,-8.99035 19.36385,3.45783 3.80361,0.34578 8.99035,-12.1024 12.79397,-5.53253 5.53252,11.75662 -14.52288,13.83132 -28.69998,8.29879 z"
         style="fill:#ffffff;fill-rule:evenodd;stroke:none;stroke-width:1px;stroke-linecap:butt;stroke-linejoin:miter;stroke-opacity:1" />
      <path
         inkscape:connector-curvature="0"
         id="path4181"
         d="m 372.06237,274.35074 -0.34578,10.71927 14.86866,15.21445 11.06505,0.34578 9.68192,-5.87831 -9.68192,-7.60722 -11.06505,2.76626 -3.80361,-12.44818 z"
         style="fill:#ffffff;fill-rule:evenodd;stroke:#000000;stroke-width:1px;stroke-linecap:butt;stroke-linejoin:miter;stroke-opacity:1" />
      <path
         inkscape:connector-curvature="0"
         id="path4183"
         d="m 676.00552,359.41333 -22.13011,-17.63493 2.0747,-14.1771 11.75662,-0.34578 6.56987,4.84096 5.53253,11.75662 11.41083,-2.76626 15.21445,1.72891 3.11204,9.68192 -9.68192,5.18674 z"
         style="fill:#ffffff;fill-rule:evenodd;stroke:#000000;stroke-width:1px;stroke-linecap:butt;stroke-linejoin:miter;stroke-opacity:1" />
      <path
         inkscape:connector-curvature="0"
         id="path4191"
         d="m 415.9834,429.90213 3.89579,30.73343 -26.40478,12.98595 -25.97191,31.16629 -5.19438,25.10618 2.59719,36.36067 -29.43483,14.28455 -20.77752,22.50899 -13.41882,32.03202 0.86573,26.83764 15.15028,29.43483 26.83764,16.01601 32.03202,5.19438 29.00196,-4.76152 53.24241,-10.38876 93.49887,9.09017 120.33651,10.38876 55.40674,-9.52303 46.31657,-19.9118 17.74747,-18.6132 0.86573,-33.76348 -23.80758,-42.42078 -39.82359,-23.37472 10.38876,-23.37472 -2.59719,-37.65927 -16.01601,-28.13623 -32.89775,-19.47893 1.73146,-25.10618 -9.09017,-21.64326 -19.04607,-19.04606 -20.34466,-5.62725 -27.70337,-52.80955 -182.23622,8.22444 z"
         style="fill:#d6ac84;fill-opacity:1;fill-rule:evenodd;stroke:none;stroke-width:1px;stroke-linecap:butt;stroke-linejoin:miter;stroke-opacity:1" />
      <path
         inkscape:connector-curvature="0"
         id="path4185"
         d="m 653.87541,526.42646 8.64457,-4.49518 12.79397,6.91566 12.79397,-5.18675 6.22409,1.72892 0.34578,7.953 -12.1024,6.91566 -23.85902,-4.14939 z"
         style="fill:#ffffff;fill-rule:evenodd;stroke:#000000;stroke-width:1px;stroke-linecap:butt;stroke-linejoin:miter;stroke-opacity:1" />
      <path
         inkscape:connector-curvature="0"
         id="path4187"
         d="m 495.85264,606.64808 -19.01806,-8.29879 -4.14939,-13.13975 13.13975,-2.07469 12.44818,12.1024 9.33614,-10.02771 11.75661,-1.03734 1.38314,8.99035 z"
         style="fill:#ffffff;fill-rule:evenodd;stroke:#000000;stroke-width:1px;stroke-linecap:butt;stroke-linejoin:miter;stroke-opacity:1" />
      <path
         id="path4204"
         d="m 644.6582,390.29883 4.9668,19.86328 c 0,0 -9.9e-4,0.71049 4.96484,11.35156 4.96583,10.64106 7.09375,19.86328 7.09375,19.86328 l -4.25586,48.94922 8.51368,-5.67578 c 0,0 0.70825,6.9e-4 18.44336,2.12891 17.73512,2.12821 13.47851,14.89648 13.47851,14.89648 l 6.38477,36.17969 -24.11914,80.16211 34.76171,-26.95703 26.2461,9.93164 11.35156,35.4707 -26.24805,36.88867 c 0,0 -37.59874,21.9912 -48.94921,26.95703 -11.35048,4.96584 7.1e-4,6.7e-4 -63.84571,12.06055 l 60.29883,4.9668 77.32617,-13.47852 29.79492,-17.02734 17.73438,-26.95703 -10.64063,-41.85547 -24.83007,-30.50391 -32.63282,-13.47851 9.93164,-20.57227 0.70899,-26.95703 -2.83594,-24.12109 -25.53906,-27.66602 -24.11914,-10.64063 4.96484,-31.21484 -9.93164,-17.02539 -17.73437,-19.1543 -21.28321,-6.38476 z m -206.34179,19.72656 -29.08594,1.41992 6.38476,37.59766 2.83789,13.47851 -26.95703,10.64258 -23.41015,31.92188 -7.80469,32.63281 6.38477,30.50391 -29.08594,10.64257 -21.99024,20.57227 -12.76953,26.24805 -3.54687,26.95703 10.64062,31.21484 15.60742,18.44336 30.50391,9.22266 19.86328,3.54687 36.17969,-8.51367 37.59766,-9.93164 29.08593,2.12891 42.56446,-14.89649 c 0,0 3.54815,-7.80469 -8.51172,-7.80469 l -12.06055,0 -28.37695,8.51368 -24.11914,0.70898 c 0,0 -77.53173,-10.76165 -83.70899,-35.4707 -7.80345,-31.21381 -13.22411,-34.52151 -0.71094,-48.23828 19.34175,-21.20211 37.59961,-36.89063 37.59961,-36.89063 l 40.43555,-7.09375 -2.1289,-7.09375 -22.70118,-22.70117 -1.41797,-30.50391 25.53907,-31.92382 5.67578,-0.70899 -9.22266,-25.53906 0.70899,-29.08594 z"
         style="opacity:1;fill:#be8f4c;fill-opacity:1;fill-rule:evenodd;stroke:none;stroke-width:1px;stroke-linecap:butt;stroke-linejoin:miter;stroke-opacity:1"
         inkscape:connector-curvature="0" />
      <path
         inkscape:connector-curvature="0"
         id="path4189"
         d="m 400.40025,426.87208 7.35871,-14.28455 9.52303,-77.05 11.68736,-39.39072 41.98792,-32.03202 54.97387,-8.22444 49.34663,0.86573 25.97191,8.6573 14.28455,14.71742 10.38876,18.18033 16.44888,16.44888 -8.65731,19.47893 4.32866,25.97191 4.32865,31.59915 5.19438,18.18034 -20.77753,-3.46292 -2.16432,-17.31461 -0.43287,-14.71741 -14.28455,-23.80759 -35.49494,8.65731 -38.09213,-7.35871 -23.37472,3.03005 -18.18034,-8.22443 -16.44887,6.49297 -8.22444,-2.59719 -7.79157,9.9559 -4.76152,20.77753 -7.3587,8.22444 -5.62725,29.00196 -3.46292,9.52303 -9.9559,-12.55309 -5.62725,8.22444 -9.9559,5.62725 -6.92584,-3.03006 z"
         style="fill:#f3e07d;fill-opacity:1;fill-rule:evenodd;stroke:none;stroke-width:1px;stroke-linecap:butt;stroke-linejoin:miter;stroke-opacity:1" />
      <path
         inkscape:connector-curvature="0"
         id="path4193"
         d="m 527.36441,478.54656 7.19518,-14.07293 7.51262,-2.53948 12.27413,-0.31743 3.80921,4.02084 0.84649,13.33224 -5.92544,12.80319 -3.49178,2.7511 -14.91942,1.58717 z"
         style="fill:#ffffff;fill-rule:evenodd;stroke:#000000;stroke-width:1px;stroke-linecap:butt;stroke-linejoin:miter;stroke-opacity:1" />
      <path
         inkscape:connector-curvature="0"
         id="path4195"
         d="m 527.78766,476.85357 5.18476,-4.54989 24.12502,-0.74068 1.26973,8.57073 -5.18476,3.91502 -23.49015,1.26974 z"
         style="fill:#e86a69;fill-opacity:1;fill-rule:evenodd;stroke:#000000;stroke-width:1px;stroke-linecap:butt;stroke-linejoin:miter;stroke-opacity:1" />
      <ellipse
         ry="1.7735114"
         rx="3.4583473"
         cy="393.68005"
         cx="510.85999"
         id="path4197"
         style="opacity:1;fill:#ffffff;fill-opacity:1;stroke:none;stroke-width:1;stroke-miterlimit:4;stroke-dasharray:none;stroke-opacity:1" />
      <path
         id="path4199"
         d="m 561.67188,369.38281 -12.41602,7.62696 5.14453,6.91601 15.07422,-2.83789 16.31641,-1.77344 11.52734,6.5625 4.43359,-6.38476 -6.56054,-6.5625 -11.17383,-3.19141 -12.94727,-0.17773 -9.39843,-0.17774 z m -55.86719,1.41992 -9.57617,2.83594 -14.54297,5.49805 -6.20703,6.91797 4.78906,3.72461 12.76953,-5.49805 11.70508,-2.48437 20.21679,4.96679 9.04493,-1.41992 5.67578,-10.99414 -11.70508,-1.41992 -10.46484,-1.95117 -11.70508,-0.17579 z"
         style="fill:#f3e07d;fill-opacity:1;fill-rule:evenodd;stroke:none;stroke-width:1px;stroke-linecap:butt;stroke-linejoin:miter;stroke-opacity:1"
         inkscape:connector-curvature="0" />
      <path
         sodipodi:nodetypes="sssssssssssssssssscccssccsssssssssssssssssssssssssssssssssssssssssssssssssssscccscsscscccsssssssscssssssssssscsssscssssssssssssssssscsssssssssssssccsssscssssssssssssssscccssssssssssssssssssssssssssssscccssssssssssssssssssssssssscsssssscssssssssssssssssssscsccssssssssssscccssssssssssssssssccssssssccscscsssscccssccccccssccsscsscsssscsscsssccssccsssscscccssssssssssssscssssssssssssssscsssssssssssssssssssssscsscssscsssssssssscssssccscssscssscssccsssssssssssssssssssscssscccscscsccsssssscscsssssssssssssssssscsssscsccsssssscsscsssssscssccscsscccssssssssssscscsssssccsscssssssssssssscscssssscsscsssscssssscssssssssssscccssssssssssssssscsscssscssssssssssssssssssssssssssssssssccssssscssssscssssscsscssssscsssssssccsscssssssssscsssscssccscsssssccsscssssssssssssssscsssscscscscssssscsssscccssscsssssssssssssssssscssssssssssssssssssssssssscssssscssssssssssccsssscsssssscscscccscssssssssssssccccccssssssssssssssscssssscscssssssssccscscccccccccsccsssssssssscscscccccsscsssssss"
         inkscape:connector-curvature="0"
         id="path4147"
         d="m 548.20898,251.38477 c -7.34237,-0.0582 -20.56552,0.61175 -41.0664,2.06445 -26.94844,1.90957 -51.03024,12.83841 -71.33203,32.37305 -11.36844,10.93886 -15.77472,20.30918 -19.63477,41.74609 -2.08436,11.57555 -1.89233,17.9375 0.54297,17.9375 2.18529,0 3.26541,-3.13892 3.98437,-11.57813 1.26725,-14.87389 9.92268,-33.85763 19.93946,-43.73437 4.87684,-4.80866 21.24791,-16.48064 26.3125,-18.75977 13.0626,-5.87833 32.44494,-9.8207 58.6875,-11.93945 11.72805,-0.94688 15.94117,-0.87656 25.95898,0.43945 6.57716,0.86402 15.60533,1.57227 20.0625,1.57227 6.3402,0 10.00795,0.64242 16.85547,2.95703 14.08362,4.76057 19.54861,9.17284 24.21289,19.54297 3.97751,8.84322 10.3804,17.38017 18.29883,24.40039 3.85782,3.42022 7.28533,7.06997 7.61523,8.10937 1.99194,6.27605 -19.65782,27.22352 -32.56836,31.51172 -5.37228,1.78438 -15.51208,1.68478 -16.77734,-0.16406 -2.01756,-2.94812 -15.91354,-5.95869 -17.94922,-3.88867 -0.38966,0.39624 1.53522,2.67201 4.27735,5.05664 l 4.98632,4.33594 -4.48632,0.31836 c -4.96471,0.35308 -15.81065,-1.99273 -20.52735,-4.43946 -13.30564,-6.90214 -32.53297,-8.91459 -28.8457,-3.01953 0.61183,0.97816 1.73683,1.83999 2.5,1.91406 0.76318,0.0741 2.04039,0.18661 2.83789,0.25 3.2916,0.26185 -0.86454,1.89805 -7.48437,2.94727 -6.07476,0.96283 -7.85471,0.86545 -13.05469,-0.70898 -3.31151,-1.00265 -9.11915,-3.68973 -12.9043,-5.97266 -7.3384,-4.42599 -11.16857,-5.19767 -12.21875,-2.46094 -0.35669,0.92952 -0.22525,1.82987 0.29102,2.00196 0.51627,0.17209 4.24493,2.80091 8.28711,5.84179 12.05371,9.06782 15.89883,9.89404 32.13281,6.89258 4.675,-0.86434 10.1819,-1.70099 12.23633,-1.85742 4.06567,-0.30956 12.23419,1.51795 15.9375,3.56445 1.28007,0.70739 5.25117,1.82346 8.82617,2.48047 9.24994,1.69994 9.865,1.66096 17.82226,-1.11914 5.31779,-1.85792 24.52837,-5.36544 30.04688,-5.48633 0.20261,-0.004 3.16197,-2.85776 6.57617,-6.33984 3.41419,-3.48208 8.67846,-7.9715 11.69922,-9.97656 4.01347,-2.66399 6.85082,-5.73759 10.53906,-11.41797 7.46626,-11.49902 7.89179,-14.73346 2.38086,-18.09375 -4.74528,-2.89342 -15.08755,-12.4801 -18.58984,-17.23243 -1.8452,-2.5038 -4.30011,-7.07908 -5.45508,-10.16601 -1.78397,-4.76807 -3.38296,-6.71595 -10.63281,-12.94727 -4.69367,-4.03427 -9.51414,-7.84659 -10.71094,-8.47265 -4.65391,-2.43453 -17.87998,-5.43149 -28.28125,-6.40821 -5.99206,-0.56267 -13.14453,-1.36168 -15.89453,-1.77539 -1.1925,-0.1794 -2.98614,-0.27943 -5.4336,-0.29882 z m 1.58008,15.75781 c -0.66797,-0.0351 -1.13203,0.24188 -1.55859,0.75586 -1.58869,1.91426 -0.60622,3.67132 3.93945,7.04297 5.158,3.82583 8.29047,8.49657 11.30274,16.84961 2.84618,7.89248 5.55201,12.14381 14.93359,23.46484 3.76016,4.5375 7.50366,8.25 8.31836,8.25 4.27238,0 1.61468,-6.96642 -7.05664,-18.5 -2.89456,-3.85 -6.06414,-9.475 -7.04297,-12.5 -2.59369,-8.01563 -7.61404,-15.28897 -13.66797,-19.79688 -5.23886,-3.90099 -7.69844,-5.48923 -9.16797,-5.5664 z m -34.05078,0.59961 c -0.78782,-0.0238 -1.37265,0.13827 -1.72851,0.49414 -1.91815,1.91815 -0.208,4.08621 6.85156,8.68945 6.5997,4.30339 9.42231,7.70376 13.76953,16.58008 3.9058,7.97501 15.94128,25.7059 18.85156,27.77344 3.65812,2.59882 5.92727,2.81457 7.66016,0.72656 1.04132,-1.25471 0.16713,-2.64149 -5.36133,-8.50195 -6.14422,-6.5132 -10.30721,-13.07509 -13.01758,-20.52149 -0.6166,-1.69402 -3.09543,-6.25132 -5.50781,-10.12695 -3.33447,-5.35703 -5.6123,-7.77055 -9.5,-10.07031 -5.44886,-3.22326 -9.65411,-4.97152 -12.01758,-5.04297 z m -140.36914,2.76367 c -3.60905,0 -7.20714,4.26454 -7.3418,8.70312 -0.19436,6.40595 0.16395,7.67433 3.19141,11.29688 1.60877,1.925 3.81827,5.15646 4.91016,7.18164 2.56492,4.7573 3.33817,5.19283 10.51367,5.91211 10.10744,1.01318 11.49924,0.95734 14.46094,-0.57422 3.71741,-1.92234 7.03906,-6.19197 7.03906,-9.04883 0,-1.24267 -1.27223,-3.62347 -2.82813,-5.28906 -3.61088,-3.86547 -9.14259,-5.04368 -13.6289,-2.9043 l -3.23438,1.54297 -1.6914,-5.36914 c -1.87862,-5.95966 -7.3419,-11.45117 -11.39063,-11.45117 z m 1.68555,5.27148 c 0.51451,0.0983 1.17661,0.72544 2.41406,1.96289 3.22412,3.22412 4.49653,7.63011 2.55859,8.85743 -1.93534,1.22567 -2.39369,1.14305 -4.66796,-0.8418 -2.65479,-2.31684 -3.51805,-6.45647 -1.82813,-8.76758 0.64229,-0.87838 1.00892,-1.30922 1.52344,-1.21094 z m 210.36328,7.10547 c -0.0667,0.0103 -0.1265,0.0308 -0.17774,0.0625 -1.72728,1.06752 -1.37657,2.02223 3.20313,8.7461 4.09583,6.01346 7.88083,14.29454 9.0957,19.90039 0.71477,3.29818 4.26141,7.83023 6.99219,8.93359 3.00565,1.21442 5.48488,1.15562 9.29102,-0.2207 4.94369,-1.78766 4.46345,-4.59661 -0.92969,-5.44141 -4.41289,-0.69125 -10.75,-5.96364 -10.75,-8.94336 0,-0.7933 -0.40295,-2.22269 -0.89649,-3.17773 -0.49354,-0.95504 -1.66406,-3.59693 -2.59961,-5.86914 -1.89359,-4.59905 -11.16061,-14.30894 -13.22851,-13.99024 z m -102.59375,0.69727 c -3.64352,0.014 -6.68164,1.19872 -6.68164,3.36328 0,1.41578 4.90916,3.5625 8.14648,3.5625 3.84462,0 9.81195,7.04051 14.77344,17.42969 3.79104,7.93829 6.14531,11.40419 10.93164,16.09375 3.35494,3.28712 7.1242,6.26927 8.375,6.62695 4.00285,1.14464 7.49321,0.89134 8.75977,-0.63477 1.02485,-1.23487 0.67447,-1.78031 -2.08789,-3.25 -7.39271,-3.93326 -14.64734,-12.13837 -20.01954,-22.64062 -5.94151,-11.6152 -8.63879,-15.22086 -13.74218,-18.37109 -2.42103,-1.49446 -5.62123,-2.19058 -8.45508,-2.17969 z m -89.42383,6.11523 c 0.80282,-0.005 1.70676,0.37667 3.30469,1.13867 3.88675,1.85346 4.59577,4.982 1.5039,6.63672 -1.06384,0.56935 -3.22462,1.03516 -4.80078,1.03516 -5.46967,0 -7.14241,-4.72407 -2.70312,-7.63281 1.19079,-0.78022 1.89249,-1.17249 2.69531,-1.17774 z m 59.91992,12.60547 c -3.7392,0.0367 -8.43581,1.48127 -8.95898,3.05078 -0.19387,0.5816 2.21746,1.80537 5.35937,2.71875 3.52409,1.02448 7.28408,3.06302 9.81641,5.32031 8.08978,7.21117 19.48657,16.1353 21.77539,17.05274 3.26405,1.30836 3.30331,1.3007 5.41016,-1.02734 1.86974,-2.06604 1.85193,-2.11873 -1.59571,-5.04883 -18.37582,-15.61734 -25.60842,-20.98884 -29.43359,-21.85157 -0.69773,-0.15736 -1.51016,-0.22331 -2.37305,-0.21484 z m -86.12109,0.20508 c -3.35226,0 -6.67053,7.05214 -4.39063,9.33203 1.05523,1.05523 1.80764,0.80789 4.14649,-1.37109 2.87091,-2.67466 3.03265,-7.96094 0.24414,-7.96094 z m -4.99414,19 c -2.54704,0 -4.59205,5.14084 -3.13086,7.87109 1.48937,2.7829 3.72077,1.71287 5.0918,-2.4414 1.26645,-3.83737 0.69066,-5.42969 -1.96094,-5.42969 z m 296.44922,1.16016 c -2.31823,-0.0793 -3.26304,0.53931 -5.58203,2.61132 -3.0935,2.76405 -3.37605,3.51993 -3.67969,9.86133 -0.42287,8.83126 2.07314,13.62876 8.92187,17.15235 2.56916,1.3218 7.00699,4.84912 9.86133,7.83984 5.46759,5.72881 6.57042,5.99085 11.68164,2.76953 1.41043,-0.88891 5.22386,-1.41527 10.5,-1.45117 13.20172,-0.0899 18.09314,-2.90708 19.4375,-11.19141 0.53014,-3.26686 0.20042,-4.10036 -2.82226,-7.12304 -1.8829,-1.8829 -5.192,-3.911 -7.35352,-4.50782 -4.50196,-1.24306 -13.73704,-0.46892 -17.59961,1.47657 -2.79428,1.40742 -3.87695,1.00326 -3.87695,-1.44922 0,-3.24005 -4.24478,-10.0461 -7.78516,-12.48242 -2.13634,-1.47015 -5.88707,-2.83989 -8.82617,-3.22266 -1.17928,-0.15359 -2.10421,-0.25679 -2.87695,-0.2832 z m 2.32617,7.20703 c 0.82879,-0.0589 1.76922,0.27595 3.41797,0.96484 5.72753,2.39311 7.74414,5.03265 7.74414,10.13281 0,3.39077 -0.46464,4.71383 -1.9336,5.5 -9.16428,4.90457 -20.18762,-9.08405 -11.97265,-15.19336 1.19842,-0.89124 1.91534,-1.34539 2.74414,-1.40429 z m -222.42578,1.63281 c -2.56608,0 -4.85253,2.40947 -4.11328,4.33594 0.29803,0.77665 2.70661,1.6222 5.59961,1.96484 3.82364,0.45285 6.7469,1.75464 11.83984,5.27539 3.71914,2.57105 7.81046,5.63112 9.0918,6.79883 1.28134,1.16772 4.20634,2.88614 6.5,3.81836 5.84917,2.37727 8.52218,2.20614 14.74023,-0.94336 7.76188,-3.93147 7.2655,-5.75 -1.57031,-5.75 -6.18731,0 -7.87074,-0.45417 -14.5,-3.90039 -4.125,-2.14437 -8.86761,-4.93714 -10.53906,-6.20703 -3.00139,-2.28031 -12.84208,-5.39258 -17.04883,-5.39258 z m 194.18945,6.4707 c -1.4426,0.1797 -2.15236,3.1194 -1.53906,7.23242 1.66628,11.17477 4.03549,25.07835 4.9082,28.79688 0.51632,2.2 0.67688,6.53071 0.35547,9.625 -0.67746,6.52222 0.99428,14.8437 3.97461,19.78125 l 2.05664,3.40625 -6.88477,-0.70508 c -3.78663,-0.38795 -7.42874,-1.15675 -8.09179,-1.70703 -1.56404,-1.29805 -3.76124,-10.4654 -2.99024,-12.47461 0.32722,-0.85272 0.64664,-5.15131 0.71094,-9.55273 0.10869,-7.43987 -0.11413,-8.36671 -3.18555,-13.1875 -1.81705,-2.85197 -4.3723,-7.35022 -5.67773,-9.9961 -2.60035,-5.27048 -4.57289,-5.68742 -5.03711,-1.0625 -0.21107,2.10293 0.58479,4.08385 2.71289,6.76172 4.90554,6.17282 7.3879,14.03425 6.67774,21.14453 -0.67229,6.73052 0.81536,16.80345 2.97851,20.16992 0.87999,1.36952 2.83623,2.42327 5.17188,2.78516 2.06666,0.32022 6.16274,1.00888 9.10156,1.53125 9.16414,1.62892 11.1274,-1.2585 7.15429,-10.52734 -2.34585,-5.47267 -1.976,-6.63741 1.76563,-5.54883 8.24704,2.39936 14.4344,6.42519 23.88867,15.54883 4.11185,3.96804 9.34766,12.49351 9.34766,15.21875 0,0.77751 0.99573,4.26636 2.21289,7.7539 2.15323,6.16966 2.16689,6.48551 0.51758,11.6875 -0.93231,2.94053 -4.29054,9.2605 -7.46289,14.04492 -6.25587,9.43487 -19.40714,23.80274 -21.78907,23.80274 -0.81265,0 -1.47851,0.6144 -1.47851,1.36523 0,0.75083 -0.94309,2.56396 -2.0957,4.0293 -2.32102,2.95069 -1.93163,5.61748 0.81445,5.58008 0.97976,-0.0133 3.80625,-1.58524 6.28125,-3.49414 2.475,-1.90891 6.075,-4.5494 8,-5.86719 1.925,-1.31779 5.075,-4.06834 7,-6.11328 5.90287,-6.27065 10.67054,-8.79901 15.55859,-8.24805 5.17359,0.58314 20.08338,7.65512 23.23438,11.01953 2.0286,2.166 2.15004,2.75845 1.05664,5.15821 -1.57308,3.45259 0.0776,4.73786 4.46875,3.47851 1.67742,-0.48108 3.11646,-0.77067 3.19726,-0.64258 6.37835,10.11634 11.96272,24.79786 12.90235,33.91993 1.06316,7.06961 0,0 1.0625,13.06445 -1.04262,9.08832 -3.93333,17.54705 -7.94336,23.25 -1.93366,2.75 -5.14454,7.37226 -7.13672,10.27148 -1.99217,2.89922 -4.36049,5.82422 -5.26172,6.5 -0.90124,0.67578 -3.43867,3.47699 -5.63867,6.22657 -2.2,2.74958 -6.48986,7.47458 -9.5332,10.5 -3.04337,3.02542 -7.21587,7.58325 -9.27149,10.1289 -2.05563,2.54566 -5.554,5.88832 -7.77539,7.42774 -5.1199,3.5481 -6.63627,6.1567 -4.70117,8.09179 1.21937,1.21937 2.39623,0.75633 8.52929,-3.36523 7.21763,-4.85039 26.87287,-21.81186 35.45313,-30.59375 4.01773,-4.11214 4.98854,-4.65716 6.68359,-3.75 1.09081,0.58379 3.08042,1.0625 4.41993,1.0625 3.84942,0 13.8919,3.5283 20.24414,7.11328 7.97793,4.50247 20.2034,16.90502 24.26757,24.61914 1.80609,3.4281 4.68128,10.1781 6.39063,15 2.75249,7.7645 3.11917,10.08342 3.20117,20.27734 0.0902,11.22272 0.007,11.67641 -3.33398,18.19336 -1.88435,3.67616 -5.03435,8.42648 -7,10.55664 -6.50131,7.04544 -22.19175,15.78319 -33.82422,18.83594 -2.88741,0.75776 -8.05108,2.55711 -11.47461,3.99805 -8.24944,3.47215 -28.28783,7.08428 -43.77539,7.89062 -25.90247,1.34858 -57.19878,1.23636 -64,-0.22851 -3.575,-0.76999 -15.5,-1.76517 -26.5,-2.21289 -11,-0.44772 -27.2,-1.7637 -36,-2.92383 -8.8,-1.16013 -19.375,-2.55933 -23.5,-3.10938 -4.125,-0.55002 -9.5383,-0.932 -12.0293,-0.8496 -4.39036,0.1453 -17.9707,-3.63328 -17.9707,-5 0,-0.68014 3.19217,-2.02228 16.9668,-7.13086 7.9062,-2.93217 10.67459,-5.35914 8.0332,-7.04297 -2.18605,-1.39357 -5.37961,-1.21625 -17.05664,0.94922 -11.06444,2.05187 -16.16911,3.60807 -22.59961,6.88867 -3.7811,1.92897 -14.0174,5.00433 -19.34375,5.8125 -1.375,0.20863 -9.16199,0.38181 -17.30469,0.38281 -13.78751,0.002 -15.14138,0.17172 -19.71289,2.48828 -2.69986,1.36812 -8.11199,2.94303 -12.02539,3.49805 -3.91341,0.55502 -13.26612,3.09648 -20.78516,5.64844 -10.93722,3.71208 -15.07166,4.65031 -20.67187,4.69531 -12.02265,0.0966 -23.6652,-1.5004 -32.64649,-4.48047 -4.75612,-1.57812 -9.40838,-2.86914 -10.33789,-2.86914 -3.43202,0 -14.16455,-7.03677 -18.625,-12.21094 -6.90846,-8.01389 -9.37841,-12.48721 -12.80664,-23.18945 -2.70399,-8.4413 -3.13856,-11.269 -3.16406,-20.64063 -0.046,-16.92459 1.4061,-22.31182 10.6582,-39.56054 6.56695,-12.24278 7.14776,-12.89617 21.54883,-24.15625 5.70813,-4.46314 8.00045,-5.46586 21.96875,-9.62305 15.6371,-4.65386 21.58336,-5.59124 47.74414,-7.52734 10.32359,-0.76403 12.62501,-1.71844 11.46094,-4.75196 -0.6869,-1.79003 -9.55488,-1.74375 -29.28516,0.1543 -8.517,0.81933 -16.28087,1.2379 -17.25195,0.92969 -2.50842,-0.79614 -3.56961,-3.23748 -5.26953,-12.1211 -2.19775,-11.48524 -2.20739,-11.44126 2.39648,-10.70507 3.13717,0.50165 4.29298,0.21874 5.97657,-1.46485 1.14813,-1.14813 1.83592,-2.74197 1.52929,-3.54101 -0.59961,-1.56256 -5.47507,-3.5918 -8.6289,-3.5918 -1.10062,0 -1.75623,-0.53867 -1.52149,-1.25 2.81055,-13.77148 -0.95115,0.83181 2.81055,-13.77148 2.94969,-10.72736 15.37366,-31.97852 18.69531,-31.97852 0.46644,0 3.37654,-2.4502 6.4668,-5.44336 6.80237,-6.58861 12.79897,-9.75399 23.79883,-12.5625 7.47727,-1.90912 9.1928,-2.0114 16.90234,-1.01367 9.07925,1.175 14.58008,0.4116 14.58008,-2.02344 0,-2.11497 -4.44006,-3.92686 -9.66602,-3.94336 -9.51195,-0.03 -17.81998,-6.12866 -17.83008,-13.08984 -0.004,-2.73678 -3.18013,-6.29617 -6.51757,-7.30274 -3.66257,-1.10463 -4.72133,2.36175 -3.48243,11.41016 1.07502,7.85147 0.38359,11.96875 -2.01171,11.96875 -2.22364,0 -13.16481,5.8187 -21.2793,11.31641 -14.70864,9.96537 -18.7562,16.09821 -27.83789,42.18359 l -3.13281,9 0.64062,18 c 0.69857,19.63601 0.20168,22.29865 -4.38281,23.5332 -4.34599,1.17033 -16.3032,7.59158 -21.60742,11.60352 -10.17056,7.69267 -22.98252,24.61433 -27.93164,36.89062 -7.43453,18.44131 -9.32109,36.65363 -5.08594,49.10547 2.8138,8.27293 3.95886,10.58998 12,24.29492 8.16217,13.91121 9.32819,14.66486 34.625,22.39258 16.5555,5.0574 20.90776,5.69247 36.11523,5.26953 11.24382,-0.31271 14.46635,-0.75608 18.5,-2.54492 2.68646,-1.19138 8.25977,-2.85144 12.38477,-3.68945 4.125,-0.83802 10.875,-2.20329 15,-3.03516 17.79168,-3.58795 29.98072,-5.02582 35.25976,-4.1582 2.88243,0.47373 8.61524,1.31777 12.74024,1.875 4.125,0.55724 9.525,1.4244 12,1.92773 2.475,0.50332 8.55,1.66948 13.5,2.5918 4.95,0.92233 10.125,2.23776 11.5,2.92188 1.6106,0.80133 9.94364,1.46388 23.42187,1.86523 11.50664,0.34267 26.35664,1.3 33,2.12695 116.98706,4.55875 99.45949,22.37307 210.17576,-26.89478 10.47725,-10.37079 14.74529,-18.42263 16.22266,-30.5957 2.41582,-19.9055 -3.63643,-39.55613 -17.58594,-57.10156 -7.34861,-9.24293 -18.75566,-20.87891 -20.46875,-20.87891 -0.71174,0 -2.98331,-0.90572 -5.04687,-2.01172 -2.06356,-1.106 -6.7075,-3.19431 -10.32031,-4.64062 -9.20602,-3.68542 -9.71241,-5.22036 -4.79102,-14.53125 l 3.86719,-7.31641 0.35351,-15.25391 c 0.52764,-22.81713 -2.37975,-34.28982 -11.9707,-47.24609 -2.0177,-2.72569 -3.33575,-5.68288 -3.34375,-7.5 -0.0109,-2.5299 -0.40542,-3 -2.51367,-3 -1.375,0 -2.86583,-0.57613 -3.31446,-1.2793 -0.88331,-1.38459 -7.02343,-5.1506 -19.91992,-12.2207 -7.29274,-3.99802 -8.29148,-4.89043 -8.94922,-8 -0.40718,-1.925 -0.2695,-6.183 0.30469,-9.46094 0.57418,-3.27795 0.74947,-7.9177 0.39063,-10.31054 -0.77625,-5.17637 -5.65377,-16.97645 -9.28711,-22.4668 l -2.59571,-3.92188 3.05079,-2.38672 c 4.12689,-3.22978 6.14577,-8.05736 4.1875,-10.01562 -1.24117,-1.24117 -1.72751,-1.22536 -3.65821,0.12695 -1.22418,0.85745 -3.02999,3.12754 -4.01367,5.04492 l -1.78906,3.48633 -3.45313,-3.33789 c -5.73241,-5.54329 -12.90223,-10.03956 -22.93164,-14.37695 l -9.52148,-4.11719 -0.57422,-8.94336 c -0.31566,-4.91857 -0.8546,-9.39672 -1.19727,-9.95117 -0.34267,-0.55445 -1.59227,-6.82723 -2.77734,-13.93945 -1.18507,-7.11222 -2.67113,-13.25987 -3.30273,-13.66211 -0.2644,-0.16839 -0.51375,-0.26517 -0.74805,-0.29492 -0.10251,-0.013 -0.20266,-0.0139 -0.29883,-0.002 z m -268.55664,0.5293 c -2.47662,0 -3.83292,4.34319 -2.0332,6.51172 1.59635,1.92345 4.61177,1.91145 5.35351,-0.0215 0.9497,-2.47489 -1.10438,-6.49023 -3.32031,-6.49022 z m 41.69727,4.17383 c -0.14361,-0.007 -0.29395,-0.005 -0.45118,0.006 -1.14348,0.0783 -2.63397,0.6387 -4.28515,1.81445 -2.82633,2.01253 -3.85609,4.82165 -2.32813,6.34961 1.14393,1.14394 4.70153,-0.37276 7.11914,-3.03516 2.6663,-2.93624 2.09941,-5.02694 -0.0547,-5.13476 z m 284.97265,0.0586 c 5.34419,-0.0382 13.28516,2.99463 13.28516,5.76172 0,0.4684 -1.33061,2.18215 -2.95703,3.80859 -4.20779,4.20778 -13.15588,4.93795 -16.41211,1.33985 -2.2305,-2.46467 -0.43304,-8.8203 2.92773,-10.35156 0.82705,-0.37683 1.92298,-0.54978 3.15625,-0.5586 z m -316.54492,7.26758 -2.58398,2.42383 c -3.11759,2.92386 -3.13371,3.11057 -0.51368,6.4414 2.43764,3.09896 2.70208,3.14826 5.09961,0.97852 2.34661,-2.12364 2.31935,-4.51926 -0.0859,-7.48438 z m 40.28516,3.5 c -3.1702,0 -7.63448,16.74182 -10,37.5 -2.93101,25.7206 -2.99779,26.03568 -6.43946,30.82812 -3.90574,5.43865 -3.3155,7.03798 2.35157,6.37305 2.96608,-0.34801 5.32333,0.11407 8.34961,1.63672 3.94553,1.98523 4.49096,2.02799 8.48632,0.64258 3.06681,-1.06342 5.25988,-2.82973 7.78321,-6.26563 l 3.51367,-4.7832 2.21484,2.7832 c 1.21807,1.53114 3.35557,4.19639 4.75,5.92188 1.39443,1.72548 2.53516,3.67613 2.53516,4.33398 0,2.22608 2.48984,0.41352 4.17578,-3.03906 1.61103,-3.29917 2.42988,-7.25447 5.00586,-24.21484 1.01789,-6.70183 0.97061,-7.99423 -0.33594,-9.30078 -2.61632,-2.61632 -4.07003,0.74448 -4.98047,11.51171 -0.83445,9.86844 -2.0914,15.07227 -3.64062,15.07227 -0.45393,0 -2.15321,-2.10506 -3.77539,-4.67578 -3.31119,-5.24736 -5.15763,-7.32422 -6.50977,-7.32422 -0.50507,0 -2.37963,2.9964 -4.16601,6.66016 -2.78775,5.71751 -3.86405,6.93416 -7.59375,8.58398 -5.10926,2.26007 -6.38298,1.66637 -3.34961,-1.5625 1.93513,-2.05986 2.99471,-5.68164 1.66211,-5.68164 -0.27976,0 -2.37272,1.35 -4.65039,3 -3.67715,2.66371 -7.8418,3.96386 -7.8418,2.44922 0,-1.54245 3.18966,-6.29638 6.0039,-8.94922 3.01267,-2.83989 7.9961,-11.2328 7.9961,-13.4668 0,-1.54614 -2.57922,-1.24513 -4,0.4668 -0.68469,0.825 -1.6404,1.5 -2.12305,1.5 -1.34972,0 -1.03893,-8.94341 0.52149,-15.04102 0.76851,-3.00306 1.72108,-9.28398 2.11718,-13.95898 0.3961,-4.675 1.59768,-10.85789 2.66992,-13.73828 1.99217,-5.35155 1.79965,-7.26172 -0.73046,-7.26172 z m 48.23242,2 c -2.62341,0 -7.6875,4.77137 -7.6875,7.24414 0,0.89995 -0.45,1.91594 -1,2.25586 -0.55,0.33992 -1,3.23518 -1,6.43555 0,8.99647 -4.61499,17.17575 -10.5293,18.66015 -2.52291,0.63321 -3.04878,1.49029 -1.72656,2.8125 1.20254,1.20255 6.43424,-0.26245 10.46484,-2.92968 5.75837,-3.81073 7.21774,-6.80468 7.84375,-16.09571 0.45419,-6.74079 1.03505,-8.90344 3.25,-12.09961 3.30316,-4.76646 3.39662,-6.2832 0.38477,-6.2832 z m -69.29297,0.0312 c -1.7456,0.0416 -3.81274,0.57341 -5.17188,1.52539 -2.6415,1.85018 -2.86372,3.98382 -0.54882,5.2793 3.43712,1.92351 10.65794,-2.87461 8.81445,-5.85742 -0.34817,-0.56336 -1.24937,-0.86686 -2.36914,-0.93555 -0.23329,-0.0143 -0.47524,-0.0177 -0.72461,-0.0117 z m 333.81836,3.96875 c -2.58009,0 -6.32538,1.70092 -7.40625,3.36523 -0.93552,1.4405 1.05007,3.66023 4.69336,5.24805 3.68916,1.60781 3.77377,1.6123 6.93554,0.41016 5.16563,-1.96397 1.86203,-9.02344 -4.22265,-9.02344 z m -15.03906,6 c -3.50254,0 -6.96466,5.64599 -6.28516,10.25 0.14072,0.95351 2.28772,0.94422 3.66992,-0.0156 4.04496,-2.80896 5.94213,-10.23437 2.61524,-10.23437 z m -141.51758,2 c -2.46581,0 -6.13788,3.18438 -4.99219,4.33008 0.90653,0.90653 1.01847,0.88437 4.38672,-0.85742 3.54496,-1.83317 3.83103,-3.47266 0.60547,-3.47266 z m -10.40821,0.60937 c -2.13868,-0.14911 -7.48214,3.20072 -6.73828,4.4043 0.87057,1.40862 2.27501,1.22534 5.58594,-0.73047 3.2077,-1.89483 3.59646,-2.80471 1.53516,-3.5957 -0.11134,-0.0427 -0.24021,-0.0682 -0.38282,-0.0781 z m -57.25585,0.39063 c -2.992,0 -3.09034,1.34563 -0.26758,3.65625 2.87805,2.35588 4.45953,2.82561 5.61719,1.66797 0.97802,-0.97804 -3.38878,-5.32422 -5.34961,-5.32422 z m 77.07226,0 c -2.87276,0 -5.60857,2.12189 -4.35351,3.37695 0.65381,0.65382 5.8932,-0.0844 7.55664,-1.06445 1.51926,-0.89512 -0.44452,-2.3125 -3.20313,-2.3125 z m 104.63477,0.34961 c -0.92763,0.003 -1.84454,0.37655 -2.69532,1.14648 -2.96981,2.68764 -2.67629,8.55125 0.625,12.47461 3.28015,3.89824 5.35793,3.57892 7.68555,-1.18359 1.72681,-3.53311 1.73135,-3.88866 0.0918,-7.34375 -1.57137,-3.31139 -3.66626,-5.09994 -5.70703,-5.09375 z m -169.51758,0.85742 c -0.52985,0.0475 -1.0435,0.25444 -1.44531,0.65625 -0.83872,0.83872 -0.63096,1.49177 0.80664,2.54297 2.16485,1.58298 3.45703,1.20984 3.45703,-0.99805 0,-1.21674 -1.10781,-2.07378 -2.28711,-2.19726 -0.1769,-0.0185 -0.35464,-0.0197 -0.53125,-0.004 z m 9.08008,1.79297 c -0.78559,0 -1.26348,0.3375 -1.0625,0.75 0.20099,0.4125 0.98601,1.9875 1.74414,3.5 1.51981,3.03206 4.05664,3.70611 4.05664,1.07812 0,-2.11367 -2.8588,-5.32812 -4.73828,-5.32812 z m 66.71679,0.14844 c -0.56936,-6.7e-4 -1.16561,0.0962 -1.72851,0.31445 -1.62781,0.63104 -1.61376,0.77972 0.20898,2.12109 2.14899,1.58145 3.70063,1.43913 4.3125,-0.39648 0.38403,-1.15209 -1.08489,-2.03708 -2.79297,-2.03906 z m -94.25195,0.084 c -1.55593,-0.006 -3.45067,0.54822 -4.80469,1.66406 l -2.42187,1.9961 5,-0.26953 c 3.53817,-0.19066 5,-0.6875 5,-1.69727 0,-1.12128 -1.21751,-1.68712 -2.77344,-1.69336 z m 242.83398,1.06445 c -0.76828,-0.0219 -1.7307,0.1976 -2.90624,0.64454 -3.67618,1.39768 -4.99102,5.20186 -3.50782,10.15234 1.32411,4.41951 1.53756,4.52141 4.48633,2.13281 2.8785,-2.33167 4.36719,-5.46528 4.36719,-9.19336 0,-2.47973 -0.7492,-3.68819 -2.43946,-3.73633 z m -202.05664,0.5918 c -0.6913,0.1599 -2.02502,2.13725 -3.48632,5.36133 -1.30875,2.8875 -2.56001,5.5875 -2.78125,6 -0.79468,1.48168 1.48532,0.71309 2.96679,-1 1.42247,-1.64487 3.79688,-7.52366 3.79688,-9.40039 0,-0.73178 -0.18187,-1.03362 -0.4961,-0.96094 z m 9.89258,2.15235 c -0.74876,0.006 -1.39648,0.82856 -1.39648,2.45898 0,2.96989 2.9549,6.19863 6.48242,7.08398 1.4226,0.35705 6.16272,-0.28961 10.80859,-1.47461 4.81079,-1.22706 11.42267,-2.10937 15.79688,-2.10937 6.4546,0 8.00491,0.35514 10.91211,2.5 4.5427,3.3515 7.48667,3.2897 5.23437,-0.10938 -1.36968,-2.06705 -10.7017,-6.39062 -13.79297,-6.39062 -3.66636,0 -12.57318,1.50491 -21.17578,3.58008 -7.11142,1.71546 -9.84665,0.93346 -10.86132,-3.10938 -0.40834,-1.62694 -1.25905,-2.43613 -2.00782,-2.42968 z m -62.61718,0.2832 c -2.34837,0.17382 -6.81041,2.8136 -6.12305,3.92578 0.30073,0.48658 1.28844,0.57096 2.19531,0.1875 0.90687,-0.38347 2.52321,-0.78675 3.5918,-0.89648 2.438,-0.25053 3.23517,-2.34465 1.1914,-3.12891 -0.228,-0.0875 -0.52005,-0.11272 -0.85546,-0.0879 z m 112.54296,0.69922 c -0.39353,-0.0245 -0.75179,0.0721 -1.00781,0.32812 -0.32965,0.32965 -0.0297,1.28476 0.66602,2.12305 1.62229,1.95495 3.01953,1.95275 3.01953,-0.006 0,-1.20906 -1.49714,-2.37194 -2.67774,-2.44531 z m -95.86328,4.16211 c -5.10622,0.0272 -9.6175,1.39529 -15.84179,4.25781 -7.14995,3.28822 -8.03948,3.48425 -9.57813,2.0918 -0.93295,-0.84432 -1.998,-1.53516 -2.36719,-1.53516 -1.10755,0 -0.75726,2.51227 0.5293,3.79883 1.54012,1.54007 6.30592,1.54208 9.11523,0.004 4.82417,-2.64138 15.43359,-5.79482 19.50782,-5.79882 2.37803,-0.002 7.7161,1.13518 11.86328,2.52734 6.93063,2.32654 11.3125,2.53232 11.3125,0.53125 0,-0.44153 -4.7062,-2.05137 -10.45899,-3.57617 -5.77832,-1.53158 -10.11052,-2.32193 -14.08203,-2.30078 z m 203.52539,0.72265 c -1.94069,0.0805 -4.75004,2.78421 -5.92383,6.87696 -0.48306,1.68439 -0.61913,3.32227 -0.30273,3.63867 2.55052,2.55052 8.24219,-2.66872 8.24219,-7.5586 0,-2.10774 -0.85121,-3.00531 -2.01563,-2.95703 z m -131.20117,2.19141 c -8.44574,0.11561 -11.94962,0.90156 -12.5918,2.82812 -0.3425,1.0275 0.14314,1.19709 1.92579,0.66797 5.45736,-1.61982 14.41592,-1.73893 18.38281,-0.24414 4.94111,1.86189 5.23191,1.89179 6.01367,0.62696 1.17191,-1.89619 -6.21139,-3.98183 -13.73047,-3.87891 z m -72.81445,1.71484 c -3.09318,0.0557 -5.87619,0.60256 -7.90625,1.65235 -4.27564,2.21102 -3.11685,3.20032 1.83398,1.5664 5.66384,-1.86924 14.74456,-0.93619 20.65821,2.12305 5.68372,2.94029 6.44531,3.17265 6.44531,1.96484 0,-1.43219 -2.14938,-2.72475 -8.5,-5.11133 -4.06405,-1.52728 -8.5543,-2.2669 -12.53125,-2.19531 z m 72.00195,1.71875 c -0.175,0.002 -0.3332,0.0132 -0.4707,0.0352 -4.79192,0.7647 -10.19819,2.69774 -12.50586,4.4707 l -2.49414,1.91602 3.20117,0.0215 c 1.78844,0.0124 3.56015,-0.62206 4.01758,-1.43945 0.70737,-1.26398 1.3602,-1.27657 4.80469,-0.0899 2.83431,0.97651 5.28589,1.12239 8.48242,0.50586 7.28009,-1.40415 9.70934,-1.109 12.68945,1.54102 2.84823,2.53275 7.31598,3.02717 8.01758,0.88672 0.23505,-0.71715 -0.63592,-0.9452 -2.42383,-0.63477 -2.68554,0.46629 -2.71487,0.42765 -0.79102,-1.04883 1.09916,-0.84352 1.67375,-1.86142 1.2754,-2.25976 -0.39834,-0.39834 -1.29961,-0.24696 -2.00196,0.33594 -0.91552,0.75981 -1.82522,0.65865 -3.21484,-0.35742 -1.06607,-0.77954 -3.82229,-1.41602 -6.125,-1.41602 -2.30271,0 -5.70392,-0.61879 -7.5586,-1.375 -1.62282,-0.66168 -3.67735,-1.10812 -4.90234,-1.09181 z m -70.99609,2.0586 c -5.56516,0.0459 -9.97711,1.76748 -14.85938,5.55664 -1.52381,1.18265 -4.03231,1.85156 -6.94922,1.85156 -3.47817,0 -4.28732,0.2771 -3.39843,1.16602 0.64166,0.64166 2.53087,1.16601 4.19922,1.16601 1.66831,0 3.0332,0.3375 3.0332,0.75 0,1.29643 -2.37063,1.61803 -5.9707,0.80859 -1.90956,-0.42932 -3.64356,-0.61036 -3.85157,-0.40234 -0.85701,0.857 1.08106,2.51172 2.94141,2.51172 1.1,0 1.72078,0.45 1.38086,1 -0.33992,0.55 -1.49106,1 -2.5586,1 -1.06754,0 -1.9414,0.45 -1.9414,1 0,3.27273 7.64139,-0.73456 12.63476,-6.625 l 3.13477,-3.69727 6.0332,1.2793 c 3.31834,0.70422 7.75678,0.98127 9.86524,0.61523 2.10804,-0.36597 5.74453,-0.91579 8.08203,-1.2207 2.3375,-0.30491 4.25,-0.88945 4.25,-1.29883 0,-1.98027 -4.15508,-4.03924 -10.01563,-4.96289 -2.17168,-0.34226 -4.15471,-0.51334 -6.00976,-0.49804 z m 190.56054,0.50195 c -0.65739,0.0499 -1.36184,0.34761 -2.08203,0.94531 -1.68841,1.40126 -1.91271,6.23244 -0.41797,9.02539 1.53394,2.86618 4.60832,2.42565 5.67579,-0.81445 1.62351,-4.92786 -0.32708,-9.37266 -3.17579,-9.15625 z M 510.72852,392.041 c 1.30512,0.0266 2.36936,0.72681 1.86132,1.54882 -0.72795,1.17788 -4.44726,1.19582 -4.44726,0.0215 0,-0.49116 0.5625,-1.09874 1.25,-1.35156 0.43938,-0.16159 0.90089,-0.22762 1.33594,-0.21876 z m 66.18164,2.58203 c -6.47068,0.0606 -7.03002,0.21587 -5.3086,1.47461 2.01024,1.46992 6.45304,1.80588 10.29102,0.77734 4.5193,-1.21112 2.0712,-2.31795 -4.98242,-2.25195 z m 158.32812,0.66992 c -0.15351,-0.004 -0.31663,0.009 -0.49023,0.0391 -4.50757,0.7781 -10.60547,7.46091 -10.60547,11.62305 0,3.46949 7.52302,0.43174 10.99023,-4.4375 2.4441,-3.43243 2.40819,-7.16634 0.10547,-7.22461 z m -143.99023,1.40039 c -0.76574,0.0395 -2.25047,0.43831 -3.81446,1.05469 -2.08532,0.82183 -5.92851,1.80679 -8.54101,2.1875 -2.6125,0.38071 -4.75,1.11456 -4.75,1.63086 0,1.06115 6.19927,1.2496 10.80664,0.32812 3.08306,-0.61661 7.77208,-4.14393 6.80078,-5.11523 -0.0721,-0.0721 -0.24671,-0.0991 -0.50195,-0.0859 z m -75.76758,0.84766 c -1.39978,0.0973 -3.81065,0.62767 -7.08008,1.57812 -5.2949,1.53927 -11.5939,1.49329 -15.50781,-0.11133 -2.58383,-1.05932 -2.12973,1.00907 0.5,2.27735 4.5478,2.19331 20.00345,0.36764 23.09961,-2.72852 0.77727,-0.77727 0.38806,-1.11289 -1.01172,-1.01562 z m -0.14453,7.1914 c -0.54003,-0.0386 -1.35348,0.0856 -2.44336,0.36914 -1.7875,0.46512 -6.0625,0.83713 -9.5,0.82813 -5.85763,-0.0159 -7.87151,0.75538 -5,1.91406 4.10664,1.65707 17.75,-0.27206 17.75,-2.50977 0,-0.3615 -0.26661,-0.56295 -0.80664,-0.60156 z m 39.93945,1.77344 c -1.65359,0 -1.89687,2.41529 -0.83398,8.2793 0.59698,3.29356 1.50787,5.61992 2.12304,5.41796 2.51689,-0.82584 1.30561,-13.69726 -1.28906,-13.69726 z m 149.77344,0.67578 c -0.89749,-0.0832 -1.55503,0.178 -2.40625,0.74219 -2.7437,1.81853 -2.50939,4.7646 0.5,6.28711 3.05487,1.5455 5.51508,1.62518 8.0664,0.25976 3.11837,-1.6689 2.24252,-3.92557 -2.3164,-5.96875 -1.80884,-0.81067 -2.94627,-1.23715 -3.84375,-1.32031 z m -172.72071,1.80274 c -0.0334,0.0114 -0.0685,0.0341 -0.10351,0.0703 -0.92401,0.95624 -1.37109,5.18659 -1.18359,11.20117 0.0557,1.7875 0.55156,3.25 1.10156,3.25 0.58009,0 1,-3.2345 1,-7.70117 0,-4.40429 -0.31361,-6.99159 -0.81446,-6.8203 z m -160.26953,8.07421 c -2.45207,0.0405 -5.20724,0.61353 -7.2539,1.66602 -3.99209,2.05293 -10.03442,8.48469 -11.76563,12.52344 -2.08558,4.86546 -2.84516,5.09369 -6.91601,2.08398 -2.30102,-1.70122 -4.40832,-2.1897 -9.70899,-2.25 -8.22058,-0.0936 -12.60002,1.60149 -15.26172,5.9082 -3.28797,5.32005 -2.67903,9.83268 2.01563,14.92579 6.26247,6.79397 8.78216,7.37617 21.97461,5.07031 2.39328,-0.41831 4.13241,-0.12681 5.5,0.92187 4.3473,3.33358 8.96486,1.69043 13.41211,-4.77343 2.3257,-3.38028 3.97772,-4.61883 7.46679,-5.59571 5.40842,-1.51427 8.03636,-4.12405 10.13282,-10.0625 2.45172,-6.94474 0.27948,-15.9021 -4.70118,-19.39062 -0.86025,-0.60255 -2.25732,-0.93441 -3.86523,-1.01172 -0.33498,-0.0161 -0.679,-0.0214 -1.0293,-0.0156 z m -2.71875,7.44727 c 2.93768,0 6.80274,3.03931 6.80274,5.34961 0,4.39457 -2.2982,7.53203 -7,9.55469 -7.293,3.13736 -11,2.40639 -11,-2.16993 0,-4.79939 6.97756,-12.73437 11.19726,-12.73437 z m 195.64844,0 c -0.46522,0 -0.8457,1.93383 -0.8457,4.29883 0,4.71203 -1.30243,6.68452 -4.44922,6.73242 -1.1275,0.0172 -3.85078,1.13912 -6.05078,2.49414 -5.3393,3.28856 -9.16172,3.1336 -14.80078,-0.60156 -5.69667,-3.77331 -8.29293,-2.9314 -3.5293,1.14453 6.38372,5.46213 12.9242,6.13646 18.81836,1.93945 1.55112,-1.10449 3.66315,-2.00781 4.69336,-2.00781 1.03022,0 2.92285,-0.7347 4.20508,-1.63281 2.72407,-1.90801 4.07155,-0.68693 4.09765,3.71484 0.008,1.42084 0.30454,2.87094 0.65625,3.22266 1.05945,1.05945 2.35938,-0.29147 2.35938,-2.45117 0,-3.12082 -4.19996,-16.85352 -5.1543,-16.85352 z m -6.48242,0.99023 c -0.78788,-0.11896 -1.36328,1.16775 -1.36328,3.50977 0,1.925 0.44095,3.5 0.98047,3.5 1.23996,0 2.42597,-4.53358 1.55468,-5.94336 -0.41233,-0.66718 -0.81374,-1.01233 -1.17187,-1.06641 z m -30.22656,0.33399 c -0.69647,0.0289 -1.92276,1.00054 -3.61133,2.94531 -2.83853,3.26918 -6.52539,12.61791 -6.52539,16.54492 0,0.65142 0.40525,1.18555 0.90039,1.18555 0.49514,0 1.4399,-2.25 2.09961,-5 0.65971,-2.75 1.42684,-5 1.70508,-5 0.27825,0 1.84441,1.125 3.47851,2.5 1.76632,1.48626 4.22357,2.5 6.06055,2.5 3.60641,0 2.98628,-1.00162 -1.5293,-2.4668 -3.75478,-1.21832 -4.41568,-3.37987 -2.6582,-8.70508 0.99631,-3.01885 0.97554,-4.54102 0.0801,-4.5039 z m -190.97266,11.67578 c 3.28791,0 4.16218,0.48561 5.84766,3.25 2.97196,4.87436 2.62182,7.37329 -1.13672,8.125 -5.96394,1.19279 -8.60209,0.68148 -11.76953,-2.27734 -4.06584,-3.7981 -4.04934,-6.57274 0.0449,-8 1.73208,-0.60381 4.88766,-1.09766 7.01367,-1.09766 z m 215.13867,17.28125 c -1.28288,-0.003 -2.90476,0.0587 -5.04687,0.14648 -4.81541,0.19737 -9.28439,0.40655 -9.92969,0.46485 -1.6161,0.14594 -7.14833,4.9082 -8.38281,7.21484 -1.44962,2.70866 -0.21868,2.34111 3.70898,-1.10742 1.87925,-1.65 4.41444,-3.01435 5.63281,-3.03125 1.21836,-0.0169 5.2762,-0.24077 9.01758,-0.49805 7.54577,-0.51888 12.08843,1.03625 13.19336,4.51758 0.80801,2.54582 2.50391,2.62408 2.50391,0.11524 0,-1.04303 -1.57205,-3.27723 -3.49414,-4.96485 -2.56511,-2.25218 -3.35447,-2.84856 -7.20313,-2.85742 z m -2.10742,5.08984 c -0.89112,0.0131 -1.8582,0.0735 -2.9043,0.17774 -8.71789,0.86828 -9.86832,1.22443 -13.29687,4.10937 -3.52116,2.96285 -7.99414,12.10777 -7.99414,16.34375 0,3.52098 2.29409,8.98913 6.58398,15.69531 l 3.39063,5.30274 7.35742,0 c 7.75485,0 8.89541,-0.57251 11.62109,-5.83594 1.82573,-3.52557 0.65165,-3.61453 -2.7539,-0.20898 -2.6652,2.66519 -3.73959,3.04492 -8.6211,3.04492 -5.65495,0 -7.43711,-1.26993 -3.32812,-2.37109 1.2375,-0.33164 4.10765,-0.60724 6.3789,-0.61524 3.64995,-0.0121 4.52682,-0.50724 7.53907,-4.26367 4.37204,-5.45216 7.26974,-14.47179 5.84961,-18.20703 -0.5592,-1.47079 -1.02521,-4.10768 -1.03321,-5.85938 -0.0251,-5.21251 -2.55123,-7.40441 -8.78906,-7.3125 z m -229.27148,2.62891 c -2.93878,0 -7.54411,4.96842 -8.79102,9.48437 -0.58126,2.10504 -0.822,4.20777 -0.53516,4.67188 1.12992,1.82826 4.50518,0.67451 7.86915,-2.68945 2.85676,-2.85677 3.5332,-4.29288 3.5332,-7.5 0,-3.34897 -0.32267,-3.9668 -2.07617,-3.9668 z m 229.64843,0.41211 c 2.37744,0.0441 4.89904,0.72015 5.5918,1.78515 1.50163,2.3087 0.51543,5.32226 -1.66406,5.08399 -1.09974,-0.12023 -2.675,0.0444 -3.5,0.36719 -0.825,0.32278 -3.75,0.64635 -6.5,0.71875 -12.39312,0.32646 -14.59815,-1.40574 -7.31641,-5.74805 3.13841,-1.87152 4.63626,-2.25133 6,-1.52148 1.18649,0.635 2.46733,0.62385 3.69141,-0.0312 0.89588,-0.47946 2.2708,-0.68076 3.69726,-0.6543 z m 3.34766,9.88672 c 0.75363,0.0473 1.16718,0.46528 1.76953,1.28906 1.62041,2.21598 1.62636,4.41257 0.0176,6.52539 -0.97021,1.27418 -3.70951,1.71155 -12.98047,2.06641 -10.23538,0.39178 -11.95337,0.22509 -13.31836,-1.28321 -2.06541,-2.28225 -0.56507,-5.17493 3.57227,-6.88867 2.24108,-0.92829 4.36511,-1.00785 7.96093,-0.29687 3.72646,0.73682 5.92782,0.62328 9.16993,-0.47266 1.96068,-0.66277 3.05496,-0.98679 3.80859,-0.93945 z m 193.99219,0.88476 c -5.16444,0.24716 -10.02808,5.36647 -7.2461,8.14844 0.36666,0.36667 1.98474,0.66797 3.59571,0.66797 8.00877,0 12.35131,-8.15456 4.68554,-8.79883 -0.3448,-0.029 -0.69086,-0.034 -1.03515,-0.0176 z m 23.28906,6.81641 c -5.17097,0 -6.89472,4.30645 -3.20117,8 2.22172,2.22172 6.94935,2.65026 8.80078,0.79883 3.04506,-3.04506 -0.61679,-8.79883 -5.59961,-8.79883 z m -217.58594,5.27553 c 0.94495,0.11975 0.10299,3.52723 -1.6289,5.72461 -1.68707,2.14052 -2.127,2.28431 -3.05469,1 -0.84432,-1.16889 -1.19938,-1.21559 -1.60547,-0.20898 -0.40779,1.01085 -0.83395,1.03034 -1.96484,0.0918 -1.03435,-0.85844 -1.75276,-0.89177 -2.52539,-0.11914 -0.59371,0.59344 -1.65313,0.85931 -2.35547,0.58985 -0.70235,-0.26951 -1.5744,-0.009 -1.9375,0.57812 -0.36309,0.58749 -1.05168,1.06836 -1.5293,1.06836 -1.22181,0 -5.13223,-5.14433 -4.75977,-6.26172 0.16931,-0.50791 4.72524,-1.10885 10.125,-1.33398 5.39976,-0.22513 10.22495,-0.6604 10.72071,-0.9668 0.21062,-0.13017 0.38063,-0.17922 0.51562,-0.16212 z m 7.38477,0.72461 c -0.55,0 -1.01832,1.2375 -1.04102,2.75 -0.0578,3.85783 -3.94917,11.25685 -7.14453,13.58594 -3.34691,2.43957 -9.0911,3.46542 -14.2832,2.55078 -5.1978,-0.91563 -10.25333,-6.29247 -11.14258,-11.85352 -0.68075,-4.25718 -1.74621,-5.14749 -2.81836,-2.35351 -1.00886,2.62905 4.4456,12.49939 8.32813,15.07031 6.23887,4.13123 18.03849,2.40275 23.29687,-3.41211 4.05265,-4.48153 7.53936,-16.33789 4.80469,-16.33789 z m -245.2832,0.47266 c -0.49886,0.0152 -1.04369,0.16727 -1.62891,0.48046 -3.84071,2.05549 -5.57213,9.16029 -2.88672,11.84571 1.84856,1.84856 3.46193,1.44541 5.72656,-1.4336 3.48568,-4.43131 2.28108,-10.9988 -1.21093,-10.89257 z m 391.38671,0.52734 c -2.37534,0 -9.10351,6.12129 -9.10351,8.2832 0,0.85173 0.5625,1.77728 1.25,2.05469 2.10767,0.85046 2.83927,0.72199 5.76758,-1.00781 5.19441,-3.06841 6.5946,-9.33008 2.08593,-9.33008 z m -266.30273,2.33594 c -0.67515,-0.006 -1.38467,0.0655 -2.10938,0.22265 -5.01791,1.08839 -6.3015,4.35905 -2.4414,6.22071 4.55101,2.19486 9.75,0.71296 9.75,-2.7793 0,-2.15966 -2.27359,-3.63645 -5.19922,-3.66406 z m -17.4668,0.82617 c -4.75338,0.0241 -7.9393,2.83791 -6.32226,5.85937 2.1298,3.97957 11.48828,1.49276 11.48828,-3.05273 0,-2.18626 -0.48275,-2.50369 -4.19531,-2.77344 -0.32987,-0.024 -0.65382,-0.0348 -0.97071,-0.0332 z m 356.15039,7.01953 c -1.0154,0.0964 -2.18419,0.8921 -3.41211,2.45312 -2.26806,2.88338 -2.60031,5.84654 -1.09765,9.79883 2.01281,5.29408 8.02539,1.80754 8.02539,-4.65429 0,-4.71028 -1.24305,-7.40182 -3.08985,-7.59571 -0.1385,-0.0145 -0.28072,-0.0157 -0.42578,-0.002 z m -87.34961,3.05469 c -1.37999,-0.0944 -3.08883,0.34234 -4.61718,1.34375 -5.08502,3.33183 -9.43326,13.54218 -6.26758,14.71679 3.35382,1.24443 14.28586,-10.24654 13.5293,-14.2207 -0.21335,-1.12062 -1.26455,-1.74539 -2.64454,-1.83984 z m -92.85742,0.77343 c -1.13246,-0.0928 -2.55249,2.74354 -5.3125,10.49024 -4.71056,13.22141 -7.74772,18.04646 -15.66015,24.87891 -10.67321,9.21641 -20.2253,12.7167 -36.53125,13.38476 -12.69653,0.52019 -16.3057,-0.20318 -27.57422,-5.5332 -5.34286,-2.52717 -16.90967,-13.02872 -25.64063,-23.27735 -2.50688,-2.94264 -3.00169,-3.17855 -3.34375,-1.59765 -0.88263,4.07925 14.17654,21.538 25.01953,29.00586 3.01218,2.07456 7.67919,4.37614 10.3711,5.11523 7.67721,2.10786 23.1065,1.86873 32.16406,-0.49804 18.40379,-4.80908 34.37587,-16.01098 40.60547,-28.47852 4.87808,-9.76271 8.21539,-22.52926 6.125,-23.43164 -0.0733,-0.0316 -0.14716,-0.0524 -0.22266,-0.0586 z m -187.27148,0.55469 c -1.20722,0.0499 -2.88025,0.64694 -4.91602,1.99414 -3.85289,2.54972 -5.31965,5.87763 -3.42383,7.77344 1.09168,1.09168 1.83489,0.81035 6.1836,-2.33984 4.99944,-3.62157 5.34012,-7.15885 2.64453,-7.41602 -0.15316,-0.0146 -0.31582,-0.0188 -0.48828,-0.0117 z m 88.95898,0.43555 c -0.53065,0 -0.96484,1.20814 -0.96484,2.68555 0,3.5919 3.78211,16.9453 6.03711,21.31445 4.02935,7.80703 19.98546,20.12866 27.55273,21.27734 3.81948,0.57979 13.87302,-0.20514 18.9043,-1.47656 4.84905,-1.22538 10.8525,-4.21172 15.3457,-7.63281 6.16675,-4.69532 17.68549,-24.5094 16.99414,-29.23242 -0.52184,-3.56501 -2.57587,-3.40526 -3.33789,0.25976 -1.14141,5.48974 -8.34134,17.99847 -13.3164,23.13672 -10.99115,11.35168 -28.45661,15.19037 -40.65235,8.93359 -1.93111,-0.99072 -7.04064,-5.25402 -11.35547,-9.4746 -7.24952,-7.09119 -8.0099,-8.22858 -10.01172,-14.98243 -1.19145,-4.01981 -2.16402,-8.12634 -2.16211,-9.125 0.004,-2.33205 -1.78521,-5.68359 -3.0332,-5.68359 z m -182.27148,5.15039 c -3.50952,-0.38267 -6.0373,6.46869 -3.65821,10.91406 1.55711,2.90949 5.77517,2.54138 6.55665,-0.57226 0.87844,-3.50007 -0.4071,-9.48431 -2.1836,-10.16602 -0.24153,-0.0927 -0.48087,-0.15027 -0.71484,-0.17578 z m 218.17968,1.91406 c -4.41183,0.0318 -5.42069,0.4832 -6.84765,1.91016 -1.15341,1.15341 -1.82947,2.53062 -1.50195,3.06055 0.78497,1.27011 1.05155,1.23542 4.61523,-0.60743 3.91585,-2.02491 12.52622,-2.01312 17.40039,0.0234 2.51866,1.05236 4.15113,1.25708 4.80469,0.60352 0.65355,-0.65355 0.42466,-1.20663 -0.67578,-1.62891 -0.91697,-0.35187 -1.66797,-1.17162 -1.66797,-1.82031 0,-0.81309 -3.24265,-1.2641 -10.43946,-1.45313 -2.36779,-0.0622 -4.21685,-0.0985 -5.6875,-0.0879 z m 125.88672,10.0586 c -1.02756,-0.0152 -2.12133,0.097 -3.32226,0.32226 -6.67675,1.25257 -9.15996,6.34024 -6.03125,12.35352 2.37579,4.5662 6.11663,7.32761 10.74609,7.93164 2.39156,0.31205 5.42075,1.4001 6.73242,2.41797 2.90506,2.25436 5.28027,2.33509 9.19532,0.31054 1.63884,-0.8475 3.42415,-1.26626 3.96875,-0.92968 0.5446,0.33658 2.59677,0.0817 4.56054,-0.56641 7.00475,-2.31178 11.93225,-14.49834 7.73633,-19.13477 -2.70698,-2.99118 -9.97613,-2.44768 -15.68359,1.17188 -2.60178,1.65 -4.99367,3 -5.31446,3 -0.32079,0 -2.11418,-1.34428 -3.98437,-2.98633 -3.03053,-2.6608 -5.52084,-3.84515 -8.60352,-3.89062 z m -267.50195,0.92773 c -1.66358,-0.0666 -4.05608,0.98289 -6.5293,3.02148 -3.72714,3.07224 -4.83368,6.3153 -2.47851,7.26563 2.16318,0.87286 2.88071,0.7148 6.7832,-1.47852 3.78888,-2.12947 5.31666,-4.78426 4.29102,-7.45703 -0.33393,-0.8702 -1.06826,-1.31161 -2.06641,-1.35156 z m 383.67188,0.94922 c -2.38868,0 -5.87773,7.18835 -6.67383,13.75 -0.42969,3.54153 -0.23102,4.25 1.1914,4.25 2.70407,0 7.28746,-5.2986 8.50977,-9.83789 1.31384,-4.87926 0.096,-8.16211 -3.02734,-8.16211 z m -117.78321,2.95508 c 2.19134,-0.0867 4.62551,1.15894 6.80274,3.63867 1.73558,1.9767 2.98472,4.1142 2.77539,4.75 -0.20933,0.63579 -2.66148,1.29079 -5.44922,1.45508 -4.6293,0.2728 -5.25137,0.0408 -7.17188,-2.65625 -2.51771,-3.5358 -2.52203,-3.58149 -0.53125,-5.57227 1.03206,-1.03206 2.25942,-1.5632 3.57422,-1.61523 z m -333.39453,0.12304 c -0.16544,-0.007 -0.32721,-5.2e-4 -0.48437,0.0176 -0.75439,0.0869 -1.42023,0.45734 -2.06641,1.10352 -1.79186,1.79186 -1.47685,3.31717 1.38867,6.72265 2.95667,3.5138 4.01715,3.74307 6.58203,1.42188 2.63006,-2.38017 2.25649,-4.90427 -1.07617,-7.27734 -1.81001,-1.28884 -3.18563,-1.94219 -4.34375,-1.98829 z m 360.17383,2.10548 c 0.34544,-0.0159 0.69801,-0.0106 1.05469,0.0195 4.72078,0.39907 5.09691,2.98788 0.99218,6.82227 -3.39047,3.16717 -5.82307,3.72185 -7.77148,1.77344 -3.19051,-3.19051 0.54301,-8.37676 5.72461,-8.61524 z m -339.90039,4.85157 c -2.09369,-0.0163 -4.18458,0.45232 -4.98438,1.41601 -1.51949,1.83087 -0.48884,5.27633 1.75586,5.86719 4.62195,1.21661 7.25801,0.6539 8.3711,-1.78906 0.86067,-1.88895 0.8281,-2.83039 -0.14258,-4 -0.81019,-0.97621 -2.90631,-1.47787 -5,-1.49414 z m 420.44336,17.35742 c -3.56795,0.0725 -8.3813,6.80842 -6.29883,10.85742 1.2075,2.34777 3.32758,2.20491 5.74023,-0.38477 2.95815,-3.1752 4.18122,-7.35973 2.73047,-9.34375 -0.59072,-0.80786 -1.3485,-1.14562 -2.17187,-1.1289 z m -7.9375,18.05664 c -1.24904,-0.0857 -2.91208,0.71482 -4.78125,2.41797 -2.95303,2.69072 -3.47046,5.01001 -1.54883,6.93164 3.13219,3.13219 9.2017,-1.40362 8.625,-6.44531 -0.21114,-1.84593 -1.04588,-2.81857 -2.29492,-2.9043 z M 482.1875,580.45153 c -0.32472,-0.01 -0.64936,-0.009 -0.97266,0.002 -2.35123,0.0805 -4.65009,0.71662 -6.6875,1.95899 -4.11735,2.51068 -4.65693,5.90977 -1.88867,11.88477 2.88981,6.23734 7.33219,9.91021 13.02344,10.76367 2.48071,0.37201 4.84163,1.26751 5.24609,1.99023 0.40446,0.72273 2.02873,1.98464 3.60938,2.80469 3.36547,1.74603 4.95516,1.32038 9.41015,-2.51953 1.80663,-1.55721 4.4113,-2.83008 5.78907,-2.83008 1.37778,0 4.23093,-0.88115 6.33984,-1.95703 13.63422,-6.95566 11.60926,-22.04297 -2.95898,-22.04297 -5.06916,0 -9.43184,2.43231 -12.10547,6.75 -1.10687,1.7875 -2.34048,3.25 -2.74219,3.25 -0.40171,0 -1.74993,-1.37767 -2.99414,-3.06055 -3.22841,-4.36666 -8.1976,-6.84706 -13.06836,-6.99414 z m -0.10938,5.60352 c 2.44408,0.0109 4.87392,1.3913 6.9336,4.00976 2.83915,3.6094 2.7867,7.03182 -0.11914,7.81055 -4.19697,1.12475 -5.94048,0.63559 -8.84766,-2.47656 -3.65806,-3.91596 -3.82505,-7.59127 -0.40234,-8.89258 0.80494,-0.30604 1.62095,-0.4548 2.43554,-0.45117 z m 32.41407,0.43164 c 1.49886,-10e-4 2.71144,0.30649 3.13281,0.98828 0.85126,1.37736 -2.05693,6.61801 -4.69922,8.46875 -2.17486,1.52332 -8.85113,2.16057 -10.05273,0.95898 -1.07393,-1.07393 1.32337,-5.8381 4.08203,-8.11132 1.74515,-1.43806 5.03901,-2.30243 7.53711,-2.30469 z m -44.65235,20.11133 c -0.7038,0.0347 -1.6347,0.49518 -3.33007,1.4082 -1.98841,1.07083 -4.29366,2.98224 -5.12305,4.24805 -1.36479,2.08292 -1.33781,2.49046 0.2793,4.27734 2.19596,2.42648 2.22401,2.42612 6.24804,-0.0273 4.47877,-2.73072 6.1566,-6.49966 3.89844,-8.75782 -0.79058,-0.79058 -1.26885,-1.1831 -1.97266,-1.14843 z m -16.58593,8.99023 c -1.18642,0.0308 -2.67254,0.92232 -4.30079,2.66797 -3.43803,3.68614 -4.93097,6.76882 -4.19921,8.67578 0.74701,1.94666 1.23987,1.95059 5.80078,0.0449 4.15897,-1.73773 6.14055,-5.13231 5.19531,-8.89844 -0.42477,-1.6924 -1.30968,-2.52099 -2.49609,-2.49023 z m -23.31836,6.42383 c -0.61592,0.0149 -1.28667,0.19172 -1.97852,0.54883 -5.49131,2.8344 -8.52376,7.90203 -6.14844,10.27734 2.64348,2.64349 11.33399,-2.82534 11.33399,-7.13281 0,-2.3295 -1.35929,-3.73801 -3.20703,-3.69336 z m -28.02735,10.87695 c -0.81975,-0.0242 -1.87604,0.15761 -3.16797,0.58399 -3.88878,1.28341 -11.20976,9.23188 -10.12304,10.99023 1.41155,2.28394 6.51208,1.05005 10.48047,-2.53516 5.4675,-4.93956 6.36279,-8.9343 2.81054,-9.03906 z m -17.10351,21.90625 c -1.89076,0.12809 -4.77884,1.91752 -8.09766,5.23633 -2.53998,2.53999 -3.18697,4.51811 -1.89844,5.80664 2.76831,2.76832 12.33399,-3.64028 12.33399,-8.26367 0,-1.97344 -0.8673,-2.87892 -2.33789,-2.7793 z m -1.25391,24.79515 c -1.2681,0.013 -2.7288,0.45156 -4.13086,1.4336 -3.01714,2.11329 -6.53006,7.263 -5.78125,8.47461 1.60898,2.60337 10.14097,-0.7956 12.82031,-5.10743 1.74181,-2.80304 -0.11837,-4.82939 -2.9082,-4.80078 z m 6.55469,16.2793 c -5.18617,-0.0193 -12.48155,7.78408 -9.29688,10.96875 2.00955,2.00955 7.55879,-0.60751 10.38868,-4.90039 2.3308,-3.53577 2.44327,-5.02718 0.4375,-5.79688 -0.47743,-0.1832 -0.9928,-0.26949 -1.5293,-0.27148 z"
         style="fill:#000000" />
    </g>
  </g>
</svg>
